{"title":"The Steel Helmet 1951 Samuel Fuller DVDRip x264 AC3-MEURSAULT","uid":11604072,"size":1089580058,"categoryP":"video","categoryS":"movies","magnet":"?xt=urn:btih:caa37daac87d1ba4d8ef60db150b4eabc4c23da3&amp;dn=The+Steel+Helmet+1951+Samuel+Fuller+DVDRip+x264+AC3-MEURSAULT&amp;tr=udp%3A%2F%2Ftracker.openbittorrent.com%3A80&amp;tr=udp%3A%2F%2Fopen.demonii.com%3A1337&amp;tr=udp%3A%2F%2Ftracker.coppersurfer.tk%3A6969&amp;tr=udp%3A%2F%2Fexodus.desync.com%3A6969","seeders":2,"leechers":2,"uploader":"iRMa0S.MEURSAuLT","files":-1,"time":1417387869,"description":" &lt;a href=&quot;http://www.imdb.com/title/tt0044072/&quot; rel=&quot;nofollow&quot; target=&quot;_NEW&quot;&gt;http://www.imdb.com/title/tt0044072/&lt;/a&gt;\n\n:: Miniaturas::\n\n:: Geral ::\nGeneral\nComplete name                            : The.Steel.Helmet.1951.Samuel.Fuller.DVDRip.x264.AC3-MEURSAULT.mp4\nFormat                                   : MPEG-4\nFormat profile                           : Base Media\nCodec ID                                 : isom\nFile size                                : 1.00 GiB\nDuration                                 : 1h 24mn\nOverall bit rate                         : 1 700 Kbps\nEncoded date                             : UTC 2014-08-09 16:33:27\nTagged date                              : UTC 2014-08-09 16:33:27\n\nVideo\nID                                       : 1\nFormat                                   : AVC\nFormat/Info                              : Advanced Video Codec\nFormat profile                           : &lt;a class=&quot;__cf_email__&quot; href=&quot;/cdn-cgi/l/email-protection&quot; data-cfemail=&quot;f3bb9a949bb3bfc0ddc2&quot;&gt;[email&amp;#160;protected]&lt;/a&gt;&lt;script cf-hash='f9e31' type=&quot;text/javascript&quot;&gt;\n/* &lt;![CDATA[ */!function(){try{var t=&quot;currentScript&quot;in document?document.currentScript:function(){for(var t=document.getElementsByTagName(&quot;script&quot;),e=t.length;e--;)if(t[e].getAttribute(&quot;cf-hash&quot;))return t[e]}();if(t&amp;&amp;t.previousSibling){var e,r,n,i,c=t.previousSibling,a=c.getAttribute(&quot;data-cfemail&quot;);if(a){for(e=&quot;&quot;,r=parseInt(a.substr(0,2),16),n=2;a.length-n;n+=2)i=parseInt(a.substr(n,2),16)^r,e+=String.fromCharCode(i);e=document.createTextNode(e),c.parentNode.replaceChild(e,c)}}}catch(u){}}();/* ]]&gt; */&lt;/script&gt;\nFormat settings, CABAC                   : Yes\nFormat settings, ReFrames                : 4 frames\nCodec ID                                 : avc1\nCodec ID/Info                            : Advanced Video Coding\nDuration                                 : 1h 24mn\nBit rate                                 : 1 505 Kbps\nMaximum bit rate                         : 6 053 Kbps\nWidth                                    : 584 pixels\nHeight                                   : 440 pixels\nDisplay aspect ratio                     : 4:3\nFrame rate mode                          : Constant\nFrame rate                               : 23.976 fps\nColor space                              : YUV\nChroma subsampling                       : 4:2:0\nBit depth                                : 8 bits\nScan type                                : Progressive\nBits/(Pixel*Frame)                       : 0.244\nStream size                              : 908 MiB (89%)\nWriting library                          : x264 core 142 r2431 ac76440\nEncoding settings                        : cabac=1 / ref=3 / deblock=1:-3:-3 / analyse=0x3:0x113 / me=hex / subme=7 / psy=1 / psy_rd=1.00:0.15 / mixed_ref=1 / me_range=16 / chroma_me=1 / trellis=1 / 8x8dct=1 / cqm=0 / deadzone=21,11 / fast_pskip=1 / chroma_qp_offset=-3 / threads=12 / lookahead_threads=2 / sliced_threads=0 / nr=0 / decimate=0 / interlaced=0 / bluray_compat=0 / constrained_intra=0 / bframes=3 / b_pyramid=2 / b_adapt=1 / b_bias=0 / direct=1 / weightb=1 / open_gop=0 / weightp=2 / keyint=240 / keyint_min=23 / scenecut=40 / intra_refresh=0 / rc_lookahead=40 / rc=2pass / mbtree=1 / bitrate=1505 / ratetol=3.0 / qcomp=0.60 / qpmin=0 / qpmax=69 / qpstep=4 / cplxblur=20.0 / qblur=0.5 / vbv_maxrate=14000 / vbv_bufsize=14000 / nal_hrd=none / filler=0 / ip_ratio=1.40 / aq=1:1.00\nEncoded date                             : UTC 2014-08-09 15:57:16\nTagged date                              : UTC 2014-08-09 16:34:12\n\nAudio\nID                                       : 2\nFormat                                   : AC-3\nFormat/Info                              : Audio Coding 3\nMode extension                           : CM (complete main)\nFormat settings, Endianness              : Big\nCodec ID                                 : ac-3\nDuration                                 : 1h 24mn\nBit rate mode                            : Constant\nBit rate                                 : 192 Kbps\nChannel(s)                               : 1 channel\nChannel positions                        : Front: C\nSampling rate                            : 48.0 KHz\nBit depth                                : 16 bits\nCompression mode                         : Lossy\nStream size                              : 116 MiB (11%)\nEncoded date                             : UTC 2014-08-09 16:34:05\nTagged date                              : UTC 2014-08-09 16:34:12\n\n::: TELAS :: &lt;a href=&quot;\nhttp://postimg.org/image/58svvlbtr/&quot; rel=&quot;nofollow&quot; target=&quot;_NEW&quot;&gt;\nhttp://postimg.org/image/58svvlbtr/&lt;/a&gt; &lt;a href=&quot;\nhttp://postimg.org/image/e1qrhd3bj/&quot; rel=&quot;nofollow&quot; target=&quot;_NEW&quot;&gt;\nhttp://postimg.org/image/e1qrhd3bj/&lt;/a&gt; &lt;a href=&quot;\nhttp://postimg.org/image/la6kigjrt/&quot; rel=&quot;nofollow&quot; target=&quot;_NEW&quot;&gt;\nhttp://postimg.org/image/la6kigjrt/&lt;/a&gt; &lt;a href=&quot;\nhttp://postimg.org/image/9o5z6tcfl/&quot; rel=&quot;nofollow&quot; target=&quot;_NEW&quot;&gt;\nhttp://postimg.org/image/9o5z6tcfl/&lt;/a&gt; &lt;a href=&quot;\nhttp://postimg.org/image/vwkcb3o67/&quot; rel=&quot;nofollow&quot; target=&quot;_NEW&quot;&gt;\nhttp://postimg.org/image/vwkcb3o67/&lt;/a&gt; &lt;a href=&quot;\nhttp://postimg.org/image/nmj5tslqx/&quot; rel=&quot;nofollow&quot; target=&quot;_NEW&quot;&gt;\nhttp://postimg.org/image/nmj5tslqx/&lt;/a&gt;","torrent":{"xt":"urn:btih:caa37daac87d1ba4d8ef60db150b4eabc4c23da3","amp;dn":"The+Steel+Helmet+1951+Samuel+Fuller+DVDRip+x264+AC3-MEURSAULT","amp;tr":["udp%3A%2F%2Ftracker.openbittorrent.com%3A80","udp%3A%2F%2Fopen.demonii.com%3A1337","udp%3A%2F%2Ftracker.coppersurfer.tk%3A6969","udp%3A%2F%2Fexodus.desync.com%3A6969"],"infoHash":"caa37daac87d1ba4d8ef60db150b4eabc4c23da3","infoHashBuffer":{"type":"Buffer","data":[202,163,125,170,200,125,27,164,216,239,96,219,21,11,78,171,196,194,61,163]},"announce":[],"urlList":[]}}